<?xml version="1.0" standalone="no"?>
<!DOCTYPE svg PUBLIC "-//W3C//DTD SVG 20010904//EN"
 "http://www.w3.org/TR/2001/REC-SVG-20010904/DTD/svg10.dtd">
<svg version="1.0" xmlns="http://www.w3.org/2000/svg"
 width="512.000000pt" height="512.000000pt" viewBox="0 0 512.000000 512.000000"
 preserveAspectRatio="xMidYMid meet">

<g transform="translate(0.000000,512.000000) scale(0.100000,-0.100000)"
fill="#3498db" stroke="none">
<path d="M325 5083 c3 -21 98 -1059 211 -2308 113 -1249 207 -2271 209 -2273
2 -2 411 -115 910 -251 l906 -248 905 247 c498 136 906 249 908 251 3 2 97
1025 210 2274 113 1249 208 2287 211 2308 l5 37 -2240 0 -2240 0 5 -37z m3575
-945 c-1 -51 -56 -617 -60 -621 -3 -2 -281 -107 -618 -233 l-613 -229 588 -3
c323 -1 590 -6 594 -10 10 -9 -147 -1753 -158 -1762 -4 -4 -247 -78 -539 -164
l-531 -158 -537 160 c-295 88 -539 162 -542 164 -5 5 -74 721 -74 771 l0 27
300 0 c165 0 300 -3 300 -6 0 -11 51 -308 53 -310 9 -6 485 -154 497 -154 15
0 491 148 498 154 2 3 16 145 31 318 l27 313 -871 5 -870 5 -27 290 c-14 160
-27 304 -27 320 l-1 30 611 235 610 235 -630 3 c-347 1 -631 3 -632 5 0 1 -15
145 -33 320 l-32 317 1343 0 1343 0 0 -22z"/>
</g>
</svg>
