<?xml version="1.0" standalone="no"?>
<!DOCTYPE svg PUBLIC "-//W3C//DTD SVG 20010904//EN"
 "http://www.w3.org/TR/2001/REC-SVG-20010904/DTD/svg10.dtd">

<svg version="1.0" xmlns="http://www.w3.org/2000/svg"
 width="800.000000pt" height="800.000000pt" viewBox="0 0 800.000000 800.000000"
 preserveAspectRatio="xMidYMid meet" style="background-color: yellow;">

<g transform="translate(0.000000,800.000000) scale(0.100000,-0.100000)"
fill="black" stroke="none">
<path d="M5565 4300 c-94 -15 -222 -58 -320 -108 -123 -63 -261 -199 -322
-317 -84 -163 -114 -323 -94 -500 15 -140 33 -204 92 -324 44 -89 63 -116 142
-195 149 -149 263 -215 700 -407 282 -123 376 -192 413 -303 24 -70 15 -170
-19 -229 -83 -142 -299 -207 -533 -162 -162 31 -298 122 -411 276 -60 81 -67
87 -87 77 -97 -51 -486 -282 -486 -289 0 -21 89 -154 151 -227 165 -195 411
-332 691 -387 111 -22 360 -31 479 -16 361 42 637 208 768 460 79 153 110 328
91 511 -14 137 -33 207 -86 317 -36 76 -61 110 -136 188 -143 150 -330 263
-678 410 -375 159 -458 229 -468 395 -5 85 11 137 62 197 61 72 196 107 318
83 118 -23 187 -70 265 -183 l55 -78 27 17 c14 10 121 78 236 152 116 74 214
139 219 143 14 13 -77 143 -158 228 -128 133 -246 201 -426 248 -78 20 -124
26 -260 28 -91 2 -192 0 -225 -5z"/>
<path d="M3668 3143 l-3 -1138 -22 -65 c-41 -119 -110 -174 -242 -191 -185
-23 -305 45 -422 236 l-51 83 -246 -149 c-135 -82 -250 -153 -255 -158 -10
-10 29 -91 76 -161 46 -67 174 -197 240 -242 158 -107 341 -166 553 -175 224
-10 393 21 564 104 82 39 108 59 190 142 82 82 103 110 143 191 51 104 81 207
97 333 6 51 10 500 10 1204 l0 1123 -315 0 -314 0 -3 -1137z"/>
</g>
</svg>