<?xml version="1.0" standalone="no"?>
<!DOCTYPE svg PUBLIC "-//W3C//DTD SVG 20010904//EN"
 "http://www.w3.org/TR/2001/REC-SVG-20010904/DTD/svg10.dtd">
<svg version="1.0" xmlns="http://www.w3.org/2000/svg"
 width="299.000000pt" height="168.000000pt" viewBox="0 0 299.000000 168.000000"
 preserveAspectRatio="xMidYMid meet">
<metadata>
Created by potrace 1.16, written by Peter Selinger 2001-2019
</metadata>
<g transform="translate(0.000000,168.000000) scale(0.100000,-0.100000)"
fill="#572364" stroke="none">
<path d="M0 840 l0 -840 1495 0 1495 0 0 840 0 840 -1495 0 -1495 0 0 -840z
m886 51 l79 -120 5 117 c5 109 6 117 25 117 19 0 20 -8 23 -162 l2 -163 -23 0
c-20 0 -39 23 -105 123 l-82 122 0 -122 0 -123 -25 0 -25 0 0 158 c0 87 3 162
7 165 21 22 46 -1 119 -112z m434 94 c0 -25 0 -25 -92 -25 l-93 0 0 -45 0 -45
88 0 c80 0 87 -2 87 -20 0 -18 -7 -20 -85 -20 l-85 0 0 -55 0 -55 95 0 c88 0
95 -1 95 -20 0 -19 -7 -20 -120 -20 l-120 0 0 165 0 165 115 0 115 0 0 -25z
m243 15 c50 0 57 -2 57 -20 0 -18 -7 -20 -55 -20 l-55 0 0 -140 c0 -133 -1
-140 -20 -140 -19 0 -20 7 -20 140 l0 140 -55 0 c-47 0 -55 3 -55 18 0 30 12
34 80 28 36 -3 91 -6 123 -6z m342 -4 c55 -23 74 -86 36 -120 -18 -17 -18 -18
5 -41 50 -50 18 -144 -54 -158 -99 -19 -175 91 -108 158 23 23 23 24 5 41 -37
33 -19 96 34 119 40 18 41 18 82 1z m371 -1 c47 -19 64 -63 64 -162 0 -94 -20
-135 -74 -153 -43 -14 -78 0 -110 43 -18 24 -21 43 -21 117 0 96 15 131 66
157 30 16 33 16 75 -2z"/>
<path d="M2204 956 c-16 -12 -20 -29 -22 -98 -2 -46 1 -95 7 -110 14 -38 56
-47 84 -19 19 19 22 33 22 110 0 73 -3 93 -19 110 -22 25 -44 27 -72 7z"/>
</g>
</svg>
