<?xml version="1.0" encoding="UTF-8"?>
<!DOCTYPE svg PUBLIC "-//W3C//DTD SVG 1.1//EN" "http://www.w3.org/Graphics/SVG/1.1/DTD/svg11.dtd">
<svg xmlns="http://www.w3.org/2000/svg" version="1.1" width="1000px" height="1000px" style="shape-rendering:geometricPrecision; text-rendering:geometricPrecision; image-rendering:optimizeQuality; fill-rule:evenodd; clip-rule:evenodd" xmlns:xlink="http://www.w3.org/1999/xlink">
<g><path style="opacity:1" fill="#323332" d="M 626.5,101.5 C 628.527,101.338 630.527,101.505 632.5,102C 644.5,108.667 656.5,115.333 668.5,122C 671.333,123.5 673.5,125.667 675,128.5C 675.667,194.5 675.667,260.5 675,326.5C 673.235,329.473 670.735,331.64 667.5,333C 645.458,346.021 623.125,358.521 600.5,370.5C 598.885,369.846 597.218,369.346 595.5,369C 572.584,355.626 549.751,342.126 527,328.5C 525.35,299.92 525.017,271.253 526,242.5C 526.465,241.069 527.299,239.903 528.5,239C 551.167,226 573.833,213 596.5,200C 599.167,199.333 601.833,199.333 604.5,200C 609.833,203 615.167,206 620.5,209C 621.784,209.684 622.951,209.517 624,208.5C 624.333,173.5 624.667,138.5 625,103.5C 625.717,102.956 626.217,102.289 626.5,101.5 Z M 599.5,256.5 C 607.778,260.939 615.945,265.606 624,270.5C 624.667,279.833 624.667,289.167 624,298.5C 616.249,303.293 608.416,307.959 600.5,312.5C 592.241,308.232 584.241,303.566 576.5,298.5C 575.361,289.548 575.195,280.548 576,271.5C 583.813,266.351 591.647,261.351 599.5,256.5 Z"/></g>
<g><path style="opacity:1" fill="#323332" d="M 197.5,197.5 C 200.978,197.184 204.312,197.684 207.5,199C 229.667,211.833 251.833,224.667 274,237.5C 274.667,238.833 275.333,240.167 276,241.5C 276.667,277.5 276.667,313.5 276,349.5C 273.847,351.444 271.347,351.944 268.5,351C 254.918,343.293 241.418,335.46 228,327.5C 227.333,326.167 226.667,324.833 226,323.5C 225.667,305.833 225.333,288.167 225,270.5C 224.215,268.714 223.049,267.214 221.5,266C 214.954,262.228 208.288,258.728 201.5,255.5C 194.046,259.061 186.712,262.894 179.5,267C 178.874,267.75 178.374,268.584 178,269.5C 176.705,288.102 176.038,306.768 176,325.5C 162.248,334.629 148.081,343.129 133.5,351C 130.975,351.896 128.808,351.396 127,349.5C 126.333,313.167 126.333,276.833 127,240.5C 128.167,238 130,236.167 132.5,235C 154.335,222.636 176.002,210.136 197.5,197.5 Z"/></g>
<g><path style="opacity:1" fill="#7fbd00" d="M 398.5,197.5 C 403.192,197.841 407.526,199.341 411.5,202C 432.167,214 452.833,226 473.5,238C 474.126,238.75 474.626,239.584 475,240.5C 475.983,269.586 475.65,298.586 474,327.5C 452.084,340.207 430.251,353.041 408.5,366C 402.655,369.454 396.988,369.12 391.5,365C 370.833,353 350.167,341 329.5,329C 327.513,327.681 326.346,325.848 326,323.5C 325.333,296.5 325.333,269.5 326,242.5C 326.667,241.167 327.333,239.833 328,238.5C 351.677,224.919 375.177,211.253 398.5,197.5 Z"/></g>
<g><path style="opacity:1" fill="#323332" d="M 795.5,198.5 C 798.978,198.184 802.312,198.684 805.5,200C 828.249,213.123 850.749,226.623 873,240.5C 873.667,249.5 873.667,258.5 873,267.5C 872.535,268.931 871.701,270.097 870.5,271C 858.5,278 846.5,285 834.5,292C 831.454,294.174 828.12,294.841 824.5,294C 823.809,292.933 823.309,291.766 823,290.5C 822.667,283.5 822.333,276.5 822,269.5C 815.25,265.208 808.417,261.041 801.5,257C 799.833,256.333 798.167,256.333 796.5,257C 789.088,260.788 781.921,264.955 775,269.5C 774.333,278.833 774.333,288.167 775,297.5C 797.752,310.793 820.585,323.96 843.5,337C 846.167,339.667 846.167,342.333 843.5,345C 828.844,353.244 814.011,361.077 799,368.5C 797.112,368.204 795.278,367.704 793.5,367C 772.663,354.747 751.663,342.747 730.5,331C 728.391,329.859 726.558,328.359 725,326.5C 724.017,297.414 724.35,268.414 726,239.5C 749.147,225.681 772.314,212.014 795.5,198.5 Z"/></g>
<g><path style="opacity:1" fill="#7fbd00" d="M 796.5,266.5 C 802.284,267.723 807.617,270.057 812.5,273.5C 813.833,279.833 813.833,286.167 812.5,292.5C 808.335,295.503 803.835,297.836 799,299.5C 794.165,297.836 789.665,295.503 785.5,292.5C 784.167,286.167 784.167,279.833 785.5,273.5C 789.475,271.501 793.141,269.168 796.5,266.5 Z"/></g>
<g><path style="opacity:0.971" fill="#7fbd00" d="M 490.5,370.5 C 497.841,370.334 505.174,370.5 512.5,371C 516.385,371.739 520.052,373.073 523.5,375C 589.022,413.181 654.688,451.181 720.5,489C 732.204,496.946 738.371,507.779 739,521.5C 739.667,598.833 739.667,676.167 739,753.5C 738.79,760.002 736.956,766.336 733.5,772.5C 729.313,778.187 724.313,783.021 718.5,787C 657.541,821.656 596.874,856.656 536.5,892C 528.779,896.527 520.779,900.527 512.5,904C 504.833,904.667 497.167,904.667 489.5,904C 461.861,889.274 435.027,873.441 409,856.5C 408.219,855.056 408.386,853.723 409.5,852.5C 421.921,848.065 433.921,842.732 445.5,836.5C 463.272,846.429 480.939,856.596 498.5,867C 500.5,867.667 502.5,867.667 504.5,867C 568.068,830.053 631.734,793.386 695.5,757C 697.241,755.38 699.075,753.88 701,752.5C 701.667,675.5 701.667,598.5 701,521.5C 634.621,482.953 568.121,444.62 501.5,406.5C 434.623,444.522 368.123,483.189 302,522.5C 301.333,598.833 301.333,675.167 302,751.5C 302.249,752.624 302.749,753.624 303.5,754.5C 323.199,765.681 342.865,776.847 362.5,788C 377.533,793.902 390.033,790.736 400,778.5C 400.36,776.392 401.027,774.392 402,772.5C 402.333,695.833 402.667,619.167 403,542.5C 403.707,540.919 404.54,539.419 405.5,538C 411,537.833 416.5,537.667 422,537.5C 428.007,537.545 433.84,538.212 439.5,539.5C 440.488,619.819 440.822,699.985 440.5,780C 434.153,812.831 414.153,828.998 380.5,828.5C 365.922,828.586 352.256,825.086 339.5,818C 319.261,806.765 299.261,795.098 279.5,783C 272.567,776.966 268.067,769.8 266,761.5C 265.333,678.5 265.333,595.5 266,512.5C 269.065,502.706 275.065,494.706 284,488.5C 348.419,451.709 412.586,414.543 476.5,377C 481.117,374.522 485.783,372.355 490.5,370.5 Z"/></g>
<g><path style="opacity:0.854" fill="#7fbd00" d="M 828.5,398.5 C 860.274,398.108 875.108,413.775 873,445.5C 868.673,460.163 859.173,469.997 844.5,475C 819.816,477.898 803.983,467.731 797,444.5C 794.886,420.363 805.386,405.03 828.5,398.5 Z M 829.5,406.5 C 855.385,406.864 867.219,419.531 865,444.5C 858.874,461.767 846.707,469.267 828.5,467C 811.533,461.343 803.7,449.51 805,431.5C 808.683,418.651 816.85,410.318 829.5,406.5 Z M 829.5,423.5 C 832.518,423.335 835.518,423.502 838.5,424C 842.088,427.289 841.755,430.289 837.5,433C 834.854,433.497 832.187,433.664 829.5,433.5C 829.5,430.167 829.5,426.833 829.5,423.5 Z"/></g>
<g><path style="opacity:0.901" fill="#7fbd00" d="M 820.5,414.5 C 828.903,414.13 837.236,414.63 845.5,416C 851.477,420.497 852.977,426.663 850,434.5C 849.097,435.701 847.931,436.535 846.5,437C 849.555,439.076 850.555,441.742 849.5,445C 850.572,449.459 851.572,453.959 852.5,458.5C 848.818,458.665 845.152,458.499 841.5,458C 841.833,457.667 842.167,457.333 842.5,457C 841.449,452.538 840.449,448.038 839.5,443.5C 836.572,442.516 833.572,442.183 830.5,442.5C 830.5,447.833 830.5,453.167 830.5,458.5C 827.167,458.5 823.833,458.5 820.5,458.5C 820.5,443.833 820.5,429.167 820.5,414.5 Z M 829.5,423.5 C 829.5,426.833 829.5,430.167 829.5,433.5C 832.187,433.664 834.854,433.497 837.5,433C 841.755,430.289 842.088,427.289 838.5,424C 835.518,423.502 832.518,423.335 829.5,423.5 Z"/></g>
<g><path style="opacity:0.966" fill="#7fbd00" d="M 537.5,531.5 C 560.551,529.971 583.218,532.138 605.5,538C 634.833,549.067 650.5,570.067 652.5,601C 652.149,603.193 651.149,605.026 649.5,606.5C 638.515,607.666 627.515,607.832 616.5,607C 615.667,606.167 614.833,605.333 614,604.5C 612.478,593.023 607.645,583.857 599.5,577C 589.939,571.566 579.605,568.566 568.5,568C 553.346,566.783 538.346,567.783 523.5,571C 507.168,576.498 501.668,587.331 507,603.5C 509.441,605.969 512.274,607.802 515.5,609C 539.819,615.264 564.485,619.597 589.5,622C 607.163,624.555 623.829,629.889 639.5,638C 656.19,650.635 663.024,667.468 660,688.5C 656.398,714.53 642.232,732.03 617.5,741C 592.458,749.071 566.791,751.738 540.5,749C 518.059,747.653 497.726,740.653 479.5,728C 462.018,712.72 455.352,693.72 459.5,671C 470.833,670.333 482.167,670.333 493.5,671C 495.848,673.354 496.514,676.021 495.5,679C 497.515,686.383 500.682,693.216 505,699.5C 513.569,706.365 523.402,710.532 534.5,712C 551.836,713.926 569.169,713.926 586.5,712C 597.132,710.896 606.298,706.729 614,699.5C 620.054,690.862 620.72,681.862 616,672.5C 609.334,667.251 601.834,663.751 593.5,662C 573.303,658.4 552.97,655.733 532.5,654C 516.399,651.743 501.066,647.077 486.5,640C 467.818,627.112 460.318,609.278 464,586.5C 467.562,564.932 479.395,549.765 499.5,541C 511.829,535.918 524.495,532.751 537.5,531.5 Z"/></g>
</svg>
