<?xml version="1.0" encoding="UTF-8"?>
<!DOCTYPE svg PUBLIC "-//W3C//DTD SVG 1.1//EN" "http://www.w3.org/Graphics/SVG/1.1/DTD/svg11.dtd">
<svg xmlns="http://www.w3.org/2000/svg" version="1.1" width="700px" height="500px" style="shape-rendering:geometricPrecision; text-rendering:geometricPrecision; image-rendering:optimizeQuality; fill-rule:evenodd; clip-rule:evenodd" xmlns:xlink="http://www.w3.org/1999/xlink">
<g><path style="opacity:0.999" fill="#007acc" d="M 113.5,13.5 C 270.833,13.5 428.167,13.5 585.5,13.5C 585.5,170.833 585.5,328.167 585.5,485.5C 428.167,485.5 270.833,485.5 113.5,485.5C 113.5,328.167 113.5,170.833 113.5,13.5 Z"/></g>
<g><path style="opacity:1" fill="#fcfdfe" d="M 458.5,228.5 C 479.899,225.955 499.566,230.455 517.5,242C 524.479,247.819 530.145,254.652 534.5,262.5C 524.119,270.445 513.286,277.778 502,284.5C 498.406,280.863 494.906,277.029 491.5,273C 488.211,270.522 484.544,268.856 480.5,268C 456.005,265.156 447.838,275.323 456,298.5C 461.695,303.85 468.195,308.016 475.5,311C 494.528,318.011 512.194,327.344 528.5,339C 546.049,356.362 551.882,377.195 546,401.5C 540.031,421.47 527.198,434.97 507.5,442C 473.783,452.491 442.783,447.491 414.5,427C 406.829,419.834 400.495,411.667 395.5,402.5C 407.001,395.248 418.668,388.248 430.5,381.5C 435.472,388.938 441.472,395.438 448.5,401C 452.545,403.573 456.878,405.573 461.5,407C 469.167,407.667 476.833,407.667 484.5,407C 499.537,403.291 505.704,393.791 503,378.5C 500.167,373 496,368.833 490.5,366C 471.49,358.328 453.157,349.328 435.5,339C 410.632,320.05 402.799,295.55 412,265.5C 417.29,253.542 425.457,244.042 436.5,237C 443.86,234.05 451.193,231.217 458.5,228.5 Z"/></g>
<g><path style="opacity:1" fill="#fefefe" d="M 217.5,231.5 C 272.833,231.5 328.167,231.5 383.5,231.5C 383.5,244.167 383.5,256.833 383.5,269.5C 362.833,269.5 342.167,269.5 321.5,269.5C 321.5,327.833 321.5,386.167 321.5,444.5C 307.167,444.5 292.833,444.5 278.5,444.5C 278.5,386.167 278.5,327.833 278.5,269.5C 258.167,269.5 237.833,269.5 217.5,269.5C 217.5,256.833 217.5,244.167 217.5,231.5 Z"/></g>
<g><path style="opacity:1" fill="#4c9fda" d="M 217.5,231.5 C 217.5,244.167 217.5,256.833 217.5,269.5C 237.833,269.5 258.167,269.5 278.5,269.5C 278.5,327.833 278.5,386.167 278.5,444.5C 277.501,386.669 277.168,328.669 277.5,270.5C 257.167,270.5 236.833,270.5 216.5,270.5C 216.171,257.323 216.505,244.323 217.5,231.5 Z"/></g>
<g><path style="opacity:1" fill="#459dd9" d="M 383.5,269.5 C 363.34,270.497 343.007,270.83 322.5,270.5C 322.832,328.669 322.499,386.669 321.5,444.5C 321.5,386.167 321.5,327.833 321.5,269.5C 342.167,269.5 362.833,269.5 383.5,269.5 Z"/></g>
</svg>
