<?xml version="1.0" encoding="UTF-8"?>
<!DOCTYPE svg PUBLIC "-//W3C//DTD SVG 1.1//EN" "http://www.w3.org/Graphics/SVG/1.1/DTD/svg11.dtd">
<svg xmlns="http://www.w3.org/2000/svg" version="1.1" width="500px" height="500px" style="shape-rendering:geometricPrecision; text-rendering:geometricPrecision; image-rendering:optimizeQuality; fill-rule:evenodd; clip-rule:evenodd" xmlns:xlink="http://www.w3.org/1999/xlink">
<g><path style="opacity:0.962" fill="#00ccff" d="M 338.5,38.5 C 363.148,37.6636 379.981,48.6636 389,71.5C 393.353,84.3046 395.186,97.4713 394.5,111C 394.645,129.483 392.312,147.649 387.5,165.5C 387.833,166.167 388.167,166.833 388.5,167.5C 411.566,174.201 432.899,184.368 452.5,198C 486.988,226.021 488.988,256.021 458.5,288C 436.852,305.156 412.518,316.99 385.5,323.5C 389.425,339.292 392.258,355.292 394,371.5C 395.339,388 394.339,404.334 391,420.5C 382.526,449.992 363.026,462.825 332.5,459C 314.54,455.185 298.207,447.851 283.5,437C 271.435,428.441 260.102,418.941 249.5,408.5C 238.646,417.855 227.646,427.022 216.5,436C 201.361,446.902 184.694,454.568 166.5,459C 133.285,462.798 113.118,448.298 106,415.5C 101.524,384.424 104.024,353.924 113.5,324C 89.3089,317.501 66.9756,307.167 46.5,293C 11.5422,264.351 9.87553,234.018 41.5,202C 53.1689,192.826 65.8356,185.159 79.5,179C 90.1609,174.726 100.828,170.559 111.5,166.5C 103.469,138.144 101.969,109.477 107,80.5C 114.835,50.8377 134.002,37.3377 164.5,40C 184.053,43.9449 201.719,51.9449 217.5,64C 228.275,72.2714 238.608,81.1048 248.5,90.5C 263.166,76.9956 278.832,64.829 295.5,54C 308.935,45.914 323.269,40.7473 338.5,38.5 Z M 148.5,60.5 C 164.427,60.0848 179.093,64.2515 192.5,73C 207.498,82.4943 221.165,93.661 233.5,106.5C 220.931,120.899 208.931,135.732 197.5,151C 175.334,153.528 153.334,157.028 131.5,161.5C 128.252,147.342 126.085,133.009 125,118.5C 123.094,101.028 126.427,84.6948 135,69.5C 138.826,65.3476 143.326,62.3476 148.5,60.5 Z M 335.5,60.5 C 355.026,58.5121 366.859,67.1788 371,86.5C 374.838,111.794 373.338,136.794 366.5,161.5C 344.702,156.812 322.702,153.312 300.5,151C 289.069,135.732 277.069,120.899 264.5,106.5C 280.661,90.0825 298.994,76.5825 319.5,66C 324.844,63.8409 330.177,62.0076 335.5,60.5 Z M 248.5,122.5 C 250.017,122.511 251.184,123.177 252,124.5C 258.833,132.667 265.667,140.833 272.5,149C 257.167,148.333 241.833,148.333 226.5,149C 233.291,139.71 240.624,130.876 248.5,122.5 Z M 218.5,170.5 C 239.169,170.333 259.836,170.5 280.5,171C 283.553,171.179 286.553,171.679 289.5,172.5C 306.139,196.93 321.139,222.43 334.5,249C 322.682,272.982 309.348,295.982 294.5,318C 288.944,319.239 283.278,319.906 277.5,320C 258.833,320.667 240.167,320.667 221.5,320C 215.419,319.862 209.419,319.196 203.5,318C 189.025,296.897 176.192,274.73 165,251.5C 164.675,249.447 165.009,247.447 166,245.5C 178.569,220.014 192.902,195.681 209,172.5C 212.27,171.868 215.437,171.201 218.5,170.5 Z M 177.5,174.5 C 178.873,174.343 180.207,174.51 181.5,175C 171.203,190.646 161.703,206.813 153,223.5C 147.05,210.318 141.883,196.818 137.5,183C 150.814,179.439 164.148,176.605 177.5,174.5 Z M 316.5,175.5 C 331.068,176.173 345.568,178.506 360,182.5C 356.443,196.629 351.443,210.296 345,223.5C 336.433,206.808 326.933,190.808 316.5,175.5 Z M 114.5,188.5 C 116.124,188.36 117.29,189.027 118,190.5C 124.245,210.489 131.745,229.989 140.5,249C 132.158,266.691 124.991,284.858 119,303.5C 98.9173,297.698 80.084,289.198 62.5,278C 34.3617,258.064 33.3617,237.064 59.5,215C 76.5919,203.453 94.9253,194.62 114.5,188.5 Z M 381.5,188.5 C 406.39,194.694 428.557,206.027 448,222.5C 460.304,235.153 461.637,248.82 452,263.5C 440.69,276.075 427.19,285.575 411.5,292C 401.089,296.526 390.422,300.359 379.5,303.5C 373.239,285.216 365.906,267.383 357.5,250C 366.767,229.971 374.767,209.471 381.5,188.5 Z M 152.5,274.5 C 160.103,287.794 167.77,301.127 175.5,314.5C 175,314.833 174.5,315.167 174,315.5C 162.812,313.562 151.646,311.562 140.5,309.5C 144.101,297.696 148.101,286.029 152.5,274.5 Z M 344.5,275.5 C 345.75,275.577 346.583,276.244 347,277.5C 350.932,287.795 354.765,298.128 358.5,308.5C 346.703,312.027 334.703,314.194 322.5,315C 330.491,302.182 337.825,289.015 344.5,275.5 Z M 133.5,329.5 C 152.66,333.638 171.993,336.804 191.5,339C 203.585,356.321 216.751,372.821 231,388.5C 232.289,390.055 232.956,391.721 233,393.5C 217.365,408.898 199.865,421.732 180.5,432C 172.557,435.704 164.224,437.871 155.5,438.5C 143.081,438.041 134.581,432.041 130,420.5C 124.069,401.443 123.069,382.109 127,362.5C 128.721,351.395 130.888,340.395 133.5,329.5 Z M 361.5,329.5 C 362.822,329.33 363.989,329.663 365,330.5C 373.4,357.75 375.4,385.416 371,413.5C 368.116,428.886 358.949,437.552 343.5,439.5C 325.057,436.445 308.39,429.278 293.5,418C 283.411,410.582 273.911,402.415 265,393.5C 264.333,392.833 264.333,392.167 265,391.5C 280.035,375.079 293.869,357.745 306.5,339.5C 325.178,337.333 343.511,334 361.5,329.5 Z M 220.5,341.5 C 239.512,341.167 258.512,341.5 277.5,342.5C 268.564,354.272 259.064,365.606 249,376.5C 238.507,365.52 229.007,353.854 220.5,341.5 Z"/></g>
<g><path style="opacity:0.983" fill="#00ccff" d="M 239.5,199.5 C 262.416,196.547 280.25,204.547 293,223.5C 304.916,248.188 301.083,270.021 281.5,289C 262.983,301.427 243.65,302.76 223.5,293C 204.387,280.262 196.554,262.429 200,239.5C 205.348,218.319 218.515,204.986 239.5,199.5 Z"/></g>
</svg>
